<?xml version="1.0" encoding="iso-8859-1"?>
<!-- Uploaded to: SVG Repo, www.svgrepo.com, Generator: SVG Repo Mixer Tools -->
<svg fill="#000000" height="800px" width="800px" version="1.1" id="Layer_1" xmlns="http://www.w3.org/2000/svg" xmlns:xlink="http://www.w3.org/1999/xlink" 
	 viewBox="0 0 511.999 511.999" xml:space="preserve">
<g>
	<g>
		<path d="M493.628,371.262c-15.122-5.179-27.791-15.631-35.761-29.261c16.903-26.341,25.79-55.874,25.79-86.001
			c0-108.321-111.153-189.762-241.828-189.762C111.148,66.238,0,147.688,0,256c0,108.321,111.157,189.761,241.828,189.761
			c49.806,0,97.057-11.457,137.364-33.221c19.231,11.202,44.017,17.491,69.741,17.492c0.002,0,0.002,0,0.004,0
			c16.378,0,32.077-2.632,45.4-7.61c10.724-4.006,17.821-14.388,17.66-25.835C511.838,385.15,504.456,374.974,493.628,371.262z
			 M448.938,396.903h-0.003c-22.763-0.001-44.903-6.371-59.223-17.038c-5.367-3.996-12.611-4.374-18.362-0.953
			c-37.091,22.06-81.879,33.721-129.521,33.721c-113.392,0-208.701-68.446-208.701-156.632c0-88.289,95.444-156.633,208.699-156.633
			c113.278,0,208.699,68.374,208.699,156.633c0,26.709-8.48,51.918-25.204,74.928c-3.407,4.688-4.117,10.814-1.872,16.157
			c8.692,20.68,24.096,37.677,43.452,48.412C461.213,396.426,455.172,396.903,448.938,396.903z"/>
	</g>
</g>
<g>
	<g>
		<path d="M346.939,177.977h-210.22c-9.148,0-16.564,7.416-16.564,16.564c0,9.148,7.416,16.564,16.564,16.564h210.22
			c9.148,0,16.564-7.416,16.564-16.564C363.503,185.393,356.087,177.977,346.939,177.977z"/>
	</g>
</g>
<g>
	<g>
		<path d="M346.939,239.436h-210.22c-9.148,0-16.564,7.416-16.564,16.564c0,9.148,7.416,16.564,16.564,16.564h210.22
			c9.148,0,16.564-7.416,16.564-16.564C363.503,246.852,356.087,239.436,346.939,239.436z"/>
	</g>
</g>
<g>
	<g>
		<path d="M346.939,300.895h-210.22c-9.148,0-16.564,7.416-16.564,16.564c0,9.148,7.416,16.564,16.564,16.564h210.22
			c9.148,0,16.564-7.416,16.564-16.564C363.503,308.311,356.087,300.895,346.939,300.895z"/>
	</g>
</g>
</svg>